<svg xmlns="http://www.w3.org/2000/svg" viewBox="0 0 1440 320" preserveAspectRatio="none">
  <path fill="#fcf8ff" fill-opacity="1" d="M0,32L34.3,42.7C68.6,53,137,75,206,74.7C274.3,75,343,53,411,64C480,75,549,117,617,149.3C685.7,181,754,203,823,197.3C891.4,192,960,160,1029,138.7C1097.1,117,1166,107,1234,106.7C1302.9,107,1371,117,1406,122.7L1440,128L1440,320L1405.7,320C1371.4,320,1303,320,1234,320C1165.7,320,1097,320,1029,320C960,320,891,320,823,320C754.3,320,686,320,617,320C548.6,320,480,320,411,320C342.9,320,274,320,206,320C137.1,320,69,320,34,320L0,320Z"></path>
</svg>